<?xml version="1.0" standalone="no"?>
<!DOCTYPE svg PUBLIC "-//W3C//DTD SVG 20010904//EN"
 "http://www.w3.org/TR/2001/REC-SVG-20010904/DTD/svg10.dtd">
<svg version="1.0" xmlns="http://www.w3.org/2000/svg"
 width="597.000000pt" height="597.000000pt" viewBox="0 0 597.000000 597.000000"
 preserveAspectRatio="xMidYMid meet">
<metadata>
Created by potrace 1.11, written by Peter Selinger 2001-2013
</metadata>
<g transform="translate(0.000000,597.000000) scale(0.100000,-0.100000)"
fill="#000000" stroke="none">
<path d="M2327 5514 c-2 -2 -44 -9 -117 -19 -36 -6 -133 -31 -160 -42 -8 -3
-17 -7 -20 -8 -58 -20 -174 -76 -192 -92 -10 -9 -18 -13 -18 -9 0 5 -55 -32
-155 -106 -16 -12 -72 -64 -123 -115 -80 -82 -113 -122 -157 -192 -5 -9 -13
-18 -16 -21 -9 -7 -28 -44 -77 -146 -24 -49 -48 -97 -53 -106 -14 -27 -79
-218 -74 -218 3 0 0 -12 -5 -26 -6 -14 -28 -116 -50 -227 -105 -527 -152 -625
-431 -912 -174 -179 -213 -223 -295 -331 -76 -101 -170 -259 -180 -302 -4 -15
-10 -31 -14 -37 -12 -16 -49 -175 -53 -229 -14 -168 81 -420 286 -761 7 -11
30 -45 51 -75 97 -134 188 -219 311 -293 76 -45 293 -154 348 -174 246 -89
417 -88 606 6 56 27 102 63 193 149 65 61 125 112 132 112 22 0 60 -59 100
-155 96 -230 157 -313 279 -373 89 -45 375 -114 567 -138 30 -3 64 -8 75 -10
26 -5 214 -15 287 -15 295 1 557 87 711 233 41 40 69 58 88 58 29 0 77 -49
118 -119 47 -80 108 -152 182 -215 71 -61 67 -58 122 -84 84 -39 161 -52 287
-47 143 6 166 10 364 65 230 64 385 151 474 265 42 54 96 177 106 241 3 21 9
59 12 84 9 59 9 233 0 340 -7 84 -12 177 -21 360 -9 191 -16 306 -19 335 -2
17 -6 62 -10 100 -4 39 -9 77 -11 85 -2 8 -6 37 -10 64 -3 27 -8 52 -10 56 -2
3 -6 24 -10 47 -15 103 -77 282 -133 382 -23 43 -111 178 -132 205 -5 6 -42
51 -81 100 -114 142 -174 207 -262 285 -47 41 -35 82 59 205 76 99 98 173 99
331 0 133 -4 160 -39 268 -23 69 -76 185 -97 211 -5 6 -29 39 -54 73 -47 64
-144 158 -179 174 -12 6 -37 19 -56 29 -121 66 -312 86 -462 49 -45 -12 -85
-25 -86 -30 -2 -5 -7 -7 -12 -4 -4 3 -23 -5 -41 -18 -215 -142 -362 -94 -484
158 -70 146 -135 285 -135 291 0 3 -18 31 -39 62 -112 163 -181 188 -471 168
-201 -14 -271 -13 -385 10 -61 11 -119 23 -130 27 -44 13 -287 30 -298 21z"/>
</g>
</svg>
